<mxfile host="app.diagrams.net" modified="2022-01-20T10:44:59.325Z" agent="5.0 (Windows NT 10.0; Win64; x64) AppleWebKit/537.36 (KHTML, like Gecko) Chrome/97.0.4692.71 Safari/537.36" etag="W6jjf0fJJH7MNhAZn6RF" version="16.4.2" type="github">
  <diagram id="yjNOr1RJLhWs88t-OZul" name="Page-1">
    <mxGraphModel dx="1422" dy="1894" grid="1" gridSize="10" guides="1" tooltips="1" connect="1" arrows="1" fold="1" page="1" pageScale="1" pageWidth="827" pageHeight="1169" math="0" shadow="0">
      <root>
        <mxCell id="0" />
        <mxCell id="1" parent="0" />
        <mxCell id="PLGMIADpz1poZpOOaNOE-14" value="" style="rounded=0;whiteSpace=wrap;html=1;fontSize=17;fillColor=#EBF8FA;strokeColor=#67AB9F;" vertex="1" parent="1">
          <mxGeometry x="620" y="-640" width="1830" height="1086" as="geometry" />
        </mxCell>
        <mxCell id="VA1tfp3fu7CcecJ8VBgJ-1" value="" style="verticalLabelPosition=bottom;verticalAlign=top;html=1;shape=mxgraph.basic.smiley" parent="1" vertex="1">
          <mxGeometry x="670" y="-145" width="80" height="80" as="geometry" />
        </mxCell>
        <mxCell id="VA1tfp3fu7CcecJ8VBgJ-2" value="비회원" style="text;html=1;strokeColor=none;fillColor=none;align=center;verticalAlign=middle;whiteSpace=wrap;rounded=0;fontSize=17;fontStyle=1" parent="1" vertex="1">
          <mxGeometry x="675" y="-65" width="70" height="40" as="geometry" />
        </mxCell>
        <mxCell id="VA1tfp3fu7CcecJ8VBgJ-3" value="" style="rounded=1;whiteSpace=wrap;html=1;" parent="1" vertex="1">
          <mxGeometry x="860" y="-275" width="150" height="80" as="geometry" />
        </mxCell>
        <mxCell id="VA1tfp3fu7CcecJ8VBgJ-4" value="기부 게시판 조회&lt;br&gt;, 댓글조회" style="text;html=1;strokeColor=none;fillColor=none;align=center;verticalAlign=middle;whiteSpace=wrap;rounded=0;" parent="1" vertex="1">
          <mxGeometry x="870" y="-265" width="130" height="60" as="geometry" />
        </mxCell>
        <mxCell id="VA1tfp3fu7CcecJ8VBgJ-5" value="" style="rounded=1;whiteSpace=wrap;html=1;" parent="1" vertex="1">
          <mxGeometry x="860" y="-95" width="150" height="80" as="geometry" />
        </mxCell>
        <mxCell id="VA1tfp3fu7CcecJ8VBgJ-6" value="내새끼 자랑&lt;br&gt;게시판 조회,&lt;br&gt;댓글 조회" style="text;html=1;strokeColor=none;fillColor=none;align=center;verticalAlign=middle;whiteSpace=wrap;rounded=0;" parent="1" vertex="1">
          <mxGeometry x="880" y="-85" width="110" height="60" as="geometry" />
        </mxCell>
        <mxCell id="VA1tfp3fu7CcecJ8VBgJ-7" value="" style="endArrow=classic;html=1;rounded=0;entryX=0;entryY=0.5;entryDx=0;entryDy=0;exitX=1;exitY=0.5;exitDx=0;exitDy=0;exitPerimeter=0;" parent="1" source="VA1tfp3fu7CcecJ8VBgJ-1" target="VA1tfp3fu7CcecJ8VBgJ-3" edge="1">
          <mxGeometry width="50" height="50" relative="1" as="geometry">
            <mxPoint x="390" y="-55" as="sourcePoint" />
            <mxPoint x="800" y="-185" as="targetPoint" />
            <Array as="points">
              <mxPoint x="800" y="-105" />
              <mxPoint x="800" y="-235" />
            </Array>
          </mxGeometry>
        </mxCell>
        <mxCell id="VA1tfp3fu7CcecJ8VBgJ-8" value="" style="endArrow=classic;html=1;rounded=0;entryX=0;entryY=0.5;entryDx=0;entryDy=0;exitX=1;exitY=0.5;exitDx=0;exitDy=0;exitPerimeter=0;" parent="1" source="VA1tfp3fu7CcecJ8VBgJ-1" target="VA1tfp3fu7CcecJ8VBgJ-5" edge="1">
          <mxGeometry width="50" height="50" relative="1" as="geometry">
            <mxPoint x="760" y="-125" as="sourcePoint" />
            <mxPoint x="850" y="-185" as="targetPoint" />
            <Array as="points">
              <mxPoint x="800" y="-105" />
              <mxPoint x="800" y="-55" />
            </Array>
          </mxGeometry>
        </mxCell>
        <mxCell id="VA1tfp3fu7CcecJ8VBgJ-9" value="" style="verticalLabelPosition=bottom;verticalAlign=top;html=1;shape=mxgraph.basic.smiley" parent="1" vertex="1">
          <mxGeometry x="1100" y="-140" width="80" height="80" as="geometry" />
        </mxCell>
        <mxCell id="VA1tfp3fu7CcecJ8VBgJ-10" value="일반 회원" style="text;html=1;strokeColor=none;fillColor=none;align=center;verticalAlign=middle;whiteSpace=wrap;rounded=0;fontSize=17;fontStyle=1" parent="1" vertex="1">
          <mxGeometry x="1100" y="-60" width="90" height="30" as="geometry" />
        </mxCell>
        <mxCell id="VA1tfp3fu7CcecJ8VBgJ-11" value="" style="rounded=1;whiteSpace=wrap;html=1;" parent="1" vertex="1">
          <mxGeometry x="860" y="-365" width="150" height="80" as="geometry" />
        </mxCell>
        <mxCell id="VA1tfp3fu7CcecJ8VBgJ-12" value="홈 화면" style="text;html=1;strokeColor=none;fillColor=none;align=center;verticalAlign=middle;whiteSpace=wrap;rounded=0;" parent="1" vertex="1">
          <mxGeometry x="870" y="-355" width="130" height="60" as="geometry" />
        </mxCell>
        <mxCell id="VA1tfp3fu7CcecJ8VBgJ-13" value="" style="rounded=1;whiteSpace=wrap;html=1;" parent="1" vertex="1">
          <mxGeometry x="860" y="-185" width="150" height="80" as="geometry" />
        </mxCell>
        <mxCell id="VA1tfp3fu7CcecJ8VBgJ-14" value="상품 게시판 조회,&lt;br&gt;댓글 조회" style="text;html=1;strokeColor=none;fillColor=none;align=center;verticalAlign=middle;whiteSpace=wrap;rounded=0;" parent="1" vertex="1">
          <mxGeometry x="880" y="-175" width="110" height="60" as="geometry" />
        </mxCell>
        <mxCell id="VA1tfp3fu7CcecJ8VBgJ-15" value="" style="rounded=1;whiteSpace=wrap;html=1;" parent="1" vertex="1">
          <mxGeometry x="860" y="-5" width="150" height="80" as="geometry" />
        </mxCell>
        <mxCell id="VA1tfp3fu7CcecJ8VBgJ-16" value="입양공고 게시판 조회" style="text;html=1;strokeColor=none;fillColor=none;align=center;verticalAlign=middle;whiteSpace=wrap;rounded=0;" parent="1" vertex="1">
          <mxGeometry x="875" y="5" width="120" height="60" as="geometry" />
        </mxCell>
        <mxCell id="VA1tfp3fu7CcecJ8VBgJ-17" value="" style="endArrow=classic;html=1;rounded=0;entryX=0;entryY=0.5;entryDx=0;entryDy=0;exitX=1;exitY=0.5;exitDx=0;exitDy=0;exitPerimeter=0;" parent="1" source="VA1tfp3fu7CcecJ8VBgJ-1" target="VA1tfp3fu7CcecJ8VBgJ-15" edge="1">
          <mxGeometry width="50" height="50" relative="1" as="geometry">
            <mxPoint x="640" y="-35" as="sourcePoint" />
            <mxPoint x="690" y="-85" as="targetPoint" />
            <Array as="points">
              <mxPoint x="800" y="-105" />
              <mxPoint x="800" y="35" />
            </Array>
          </mxGeometry>
        </mxCell>
        <mxCell id="VA1tfp3fu7CcecJ8VBgJ-18" value="" style="endArrow=classic;html=1;rounded=0;entryX=0;entryY=0.5;entryDx=0;entryDy=0;exitX=1;exitY=0.5;exitDx=0;exitDy=0;exitPerimeter=0;" parent="1" source="VA1tfp3fu7CcecJ8VBgJ-1" target="VA1tfp3fu7CcecJ8VBgJ-11" edge="1">
          <mxGeometry width="50" height="50" relative="1" as="geometry">
            <mxPoint x="640" y="-35" as="sourcePoint" />
            <mxPoint x="690" y="-85" as="targetPoint" />
            <Array as="points">
              <mxPoint x="800" y="-105" />
              <mxPoint x="800" y="-325" />
            </Array>
          </mxGeometry>
        </mxCell>
        <mxCell id="VA1tfp3fu7CcecJ8VBgJ-19" value="" style="rounded=1;whiteSpace=wrap;html=1;" parent="1" vertex="1">
          <mxGeometry x="1310" y="-370" width="150" height="80" as="geometry" />
        </mxCell>
        <mxCell id="VA1tfp3fu7CcecJ8VBgJ-20" value="기부 게시판 조회,&lt;br&gt;댓글 조회, 작성, 삭제" style="text;html=1;strokeColor=none;fillColor=none;align=center;verticalAlign=middle;whiteSpace=wrap;rounded=0;" parent="1" vertex="1">
          <mxGeometry x="1320" y="-360" width="130" height="60" as="geometry" />
        </mxCell>
        <mxCell id="VA1tfp3fu7CcecJ8VBgJ-21" value="" style="rounded=1;whiteSpace=wrap;html=1;" parent="1" vertex="1">
          <mxGeometry x="1310" y="-190" width="150" height="80" as="geometry" />
        </mxCell>
        <mxCell id="VA1tfp3fu7CcecJ8VBgJ-22" value="내새끼 자랑 게시판&amp;nbsp;&lt;br&gt;조회, 작성, 수정, 삭제,&lt;br&gt;좋아요,&lt;br&gt;댓글 조회, 작성, 삭제" style="text;html=1;strokeColor=none;fillColor=none;align=center;verticalAlign=middle;whiteSpace=wrap;rounded=0;" parent="1" vertex="1">
          <mxGeometry x="1310" y="-180" width="150" height="60" as="geometry" />
        </mxCell>
        <mxCell id="VA1tfp3fu7CcecJ8VBgJ-23" value="" style="rounded=1;whiteSpace=wrap;html=1;" parent="1" vertex="1">
          <mxGeometry x="1310" y="-460" width="150" height="80" as="geometry" />
        </mxCell>
        <mxCell id="VA1tfp3fu7CcecJ8VBgJ-24" value="홈 화면" style="text;html=1;strokeColor=none;fillColor=none;align=center;verticalAlign=middle;whiteSpace=wrap;rounded=0;" parent="1" vertex="1">
          <mxGeometry x="1320" y="-450" width="130" height="60" as="geometry" />
        </mxCell>
        <mxCell id="VA1tfp3fu7CcecJ8VBgJ-25" value="" style="rounded=1;whiteSpace=wrap;html=1;" parent="1" vertex="1">
          <mxGeometry x="1310" y="-280" width="150" height="80" as="geometry" />
        </mxCell>
        <mxCell id="VA1tfp3fu7CcecJ8VBgJ-26" value="상품 게시판 조회,&lt;br&gt;댓글 조회, 작성, 삭제" style="text;html=1;strokeColor=none;fillColor=none;align=center;verticalAlign=middle;whiteSpace=wrap;rounded=0;" parent="1" vertex="1">
          <mxGeometry x="1325" y="-270" width="130" height="60" as="geometry" />
        </mxCell>
        <mxCell id="VA1tfp3fu7CcecJ8VBgJ-27" value="" style="rounded=1;whiteSpace=wrap;html=1;" parent="1" vertex="1">
          <mxGeometry x="1310" y="-100" width="150" height="80" as="geometry" />
        </mxCell>
        <mxCell id="VA1tfp3fu7CcecJ8VBgJ-28" value="입양공고 게시판&amp;nbsp;&lt;br&gt;조회, 작성, 수정, 삭제" style="text;html=1;strokeColor=none;fillColor=none;align=center;verticalAlign=middle;whiteSpace=wrap;rounded=0;" parent="1" vertex="1">
          <mxGeometry x="1325" y="-90" width="120" height="60" as="geometry" />
        </mxCell>
        <mxCell id="VA1tfp3fu7CcecJ8VBgJ-30" value="" style="rounded=1;whiteSpace=wrap;html=1;" parent="1" vertex="1">
          <mxGeometry x="1310" y="-10" width="150" height="80" as="geometry" />
        </mxCell>
        <mxCell id="VA1tfp3fu7CcecJ8VBgJ-31" value="기부 단건/정기 결제" style="text;html=1;strokeColor=none;fillColor=none;align=center;verticalAlign=middle;whiteSpace=wrap;rounded=0;" parent="1" vertex="1">
          <mxGeometry x="1320" width="130" height="60" as="geometry" />
        </mxCell>
        <mxCell id="VA1tfp3fu7CcecJ8VBgJ-32" value="" style="rounded=1;whiteSpace=wrap;html=1;" parent="1" vertex="1">
          <mxGeometry x="1310" y="80" width="150" height="80" as="geometry" />
        </mxCell>
        <mxCell id="VA1tfp3fu7CcecJ8VBgJ-33" value="상품 구매" style="text;html=1;strokeColor=none;fillColor=none;align=center;verticalAlign=middle;whiteSpace=wrap;rounded=0;" parent="1" vertex="1">
          <mxGeometry x="1335" y="95" width="100" height="50" as="geometry" />
        </mxCell>
        <mxCell id="VA1tfp3fu7CcecJ8VBgJ-34" value="" style="endArrow=classic;html=1;rounded=0;exitX=1;exitY=0.5;exitDx=0;exitDy=0;exitPerimeter=0;entryX=0;entryY=0.5;entryDx=0;entryDy=0;" parent="1" source="VA1tfp3fu7CcecJ8VBgJ-9" target="VA1tfp3fu7CcecJ8VBgJ-22" edge="1">
          <mxGeometry width="50" height="50" relative="1" as="geometry">
            <mxPoint x="1240" y="-150" as="sourcePoint" />
            <mxPoint x="1290" y="-200" as="targetPoint" />
            <Array as="points">
              <mxPoint x="1240" y="-100" />
              <mxPoint x="1240" y="-150" />
            </Array>
          </mxGeometry>
        </mxCell>
        <mxCell id="VA1tfp3fu7CcecJ8VBgJ-35" value="" style="endArrow=classic;html=1;rounded=0;exitX=1;exitY=0.5;exitDx=0;exitDy=0;exitPerimeter=0;entryX=0;entryY=0.5;entryDx=0;entryDy=0;" parent="1" source="VA1tfp3fu7CcecJ8VBgJ-9" target="VA1tfp3fu7CcecJ8VBgJ-25" edge="1">
          <mxGeometry width="50" height="50" relative="1" as="geometry">
            <mxPoint x="1190" y="-140" as="sourcePoint" />
            <mxPoint x="1320" y="-140" as="targetPoint" />
            <Array as="points">
              <mxPoint x="1240" y="-100" />
              <mxPoint x="1240" y="-240" />
            </Array>
          </mxGeometry>
        </mxCell>
        <mxCell id="VA1tfp3fu7CcecJ8VBgJ-36" value="" style="endArrow=classic;html=1;rounded=0;exitX=1;exitY=0.5;exitDx=0;exitDy=0;exitPerimeter=0;entryX=0;entryY=0.5;entryDx=0;entryDy=0;" parent="1" source="VA1tfp3fu7CcecJ8VBgJ-9" target="VA1tfp3fu7CcecJ8VBgJ-19" edge="1">
          <mxGeometry width="50" height="50" relative="1" as="geometry">
            <mxPoint x="1200" y="-130" as="sourcePoint" />
            <mxPoint x="1330" y="-130" as="targetPoint" />
            <Array as="points">
              <mxPoint x="1240" y="-100" />
              <mxPoint x="1240" y="-330" />
            </Array>
          </mxGeometry>
        </mxCell>
        <mxCell id="VA1tfp3fu7CcecJ8VBgJ-37" value="" style="endArrow=classic;html=1;rounded=0;exitX=1;exitY=0.5;exitDx=0;exitDy=0;exitPerimeter=0;entryX=0;entryY=0.5;entryDx=0;entryDy=0;" parent="1" source="VA1tfp3fu7CcecJ8VBgJ-9" target="VA1tfp3fu7CcecJ8VBgJ-23" edge="1">
          <mxGeometry width="50" height="50" relative="1" as="geometry">
            <mxPoint x="1210" y="-120" as="sourcePoint" />
            <mxPoint x="1340" y="-120" as="targetPoint" />
            <Array as="points">
              <mxPoint x="1240" y="-100" />
              <mxPoint x="1240" y="-420" />
            </Array>
          </mxGeometry>
        </mxCell>
        <mxCell id="VA1tfp3fu7CcecJ8VBgJ-38" value="" style="endArrow=classic;html=1;rounded=0;exitX=1;exitY=0.5;exitDx=0;exitDy=0;exitPerimeter=0;entryX=0;entryY=0.5;entryDx=0;entryDy=0;" parent="1" source="VA1tfp3fu7CcecJ8VBgJ-9" target="VA1tfp3fu7CcecJ8VBgJ-27" edge="1">
          <mxGeometry width="50" height="50" relative="1" as="geometry">
            <mxPoint x="1220" y="-110" as="sourcePoint" />
            <mxPoint x="1350" y="-110" as="targetPoint" />
            <Array as="points">
              <mxPoint x="1240" y="-100" />
              <mxPoint x="1240" y="-60" />
            </Array>
          </mxGeometry>
        </mxCell>
        <mxCell id="VA1tfp3fu7CcecJ8VBgJ-39" value="" style="endArrow=classic;html=1;rounded=0;exitX=1;exitY=0.5;exitDx=0;exitDy=0;exitPerimeter=0;entryX=0;entryY=0.5;entryDx=0;entryDy=0;" parent="1" source="VA1tfp3fu7CcecJ8VBgJ-9" target="VA1tfp3fu7CcecJ8VBgJ-30" edge="1">
          <mxGeometry width="50" height="50" relative="1" as="geometry">
            <mxPoint x="1230" y="-100" as="sourcePoint" />
            <mxPoint x="1360" y="-100" as="targetPoint" />
            <Array as="points">
              <mxPoint x="1240" y="-100" />
              <mxPoint x="1240" y="30" />
            </Array>
          </mxGeometry>
        </mxCell>
        <mxCell id="VA1tfp3fu7CcecJ8VBgJ-40" value="" style="endArrow=classic;html=1;rounded=0;exitX=1;exitY=0.5;exitDx=0;exitDy=0;exitPerimeter=0;entryX=0;entryY=0.5;entryDx=0;entryDy=0;" parent="1" source="VA1tfp3fu7CcecJ8VBgJ-9" target="VA1tfp3fu7CcecJ8VBgJ-32" edge="1">
          <mxGeometry width="50" height="50" relative="1" as="geometry">
            <mxPoint x="1240" y="-90" as="sourcePoint" />
            <mxPoint x="1370" y="-90" as="targetPoint" />
            <Array as="points">
              <mxPoint x="1240" y="-100" />
              <mxPoint x="1240" y="120" />
            </Array>
          </mxGeometry>
        </mxCell>
        <mxCell id="VA1tfp3fu7CcecJ8VBgJ-41" value="" style="rounded=1;whiteSpace=wrap;html=1;" parent="1" vertex="1">
          <mxGeometry x="1310" y="170" width="150" height="80" as="geometry" />
        </mxCell>
        <mxCell id="VA1tfp3fu7CcecJ8VBgJ-42" value="1:1문의게시판&lt;br&gt;조회, 작성, 수정, 삭제&lt;br&gt;댓글 조회, 작성, 삭제" style="text;html=1;strokeColor=none;fillColor=none;align=center;verticalAlign=middle;whiteSpace=wrap;rounded=0;" parent="1" vertex="1">
          <mxGeometry x="1320" y="180" width="130" height="60" as="geometry" />
        </mxCell>
        <mxCell id="VA1tfp3fu7CcecJ8VBgJ-43" value="" style="endArrow=classic;html=1;rounded=0;exitX=1;exitY=0.5;exitDx=0;exitDy=0;exitPerimeter=0;entryX=0;entryY=0.5;entryDx=0;entryDy=0;" parent="1" source="VA1tfp3fu7CcecJ8VBgJ-9" target="VA1tfp3fu7CcecJ8VBgJ-41" edge="1">
          <mxGeometry width="50" height="50" relative="1" as="geometry">
            <mxPoint x="1240" y="-50" as="sourcePoint" />
            <mxPoint x="1290" y="-100" as="targetPoint" />
            <Array as="points">
              <mxPoint x="1240" y="-100" />
              <mxPoint x="1240" y="210" />
            </Array>
          </mxGeometry>
        </mxCell>
        <mxCell id="VA1tfp3fu7CcecJ8VBgJ-44" value="" style="verticalLabelPosition=bottom;verticalAlign=top;html=1;shape=mxgraph.basic.smiley" parent="1" vertex="1">
          <mxGeometry x="1540" y="-140" width="80" height="80" as="geometry" />
        </mxCell>
        <mxCell id="VA1tfp3fu7CcecJ8VBgJ-45" value="보호소" style="text;html=1;strokeColor=none;fillColor=none;align=center;verticalAlign=middle;whiteSpace=wrap;rounded=0;fontSize=17;fontStyle=1" parent="1" vertex="1">
          <mxGeometry x="1550" y="-60" width="60" height="30" as="geometry" />
        </mxCell>
        <mxCell id="VA1tfp3fu7CcecJ8VBgJ-46" value="" style="rounded=1;whiteSpace=wrap;html=1;" parent="1" vertex="1">
          <mxGeometry x="1750" y="-370" width="150" height="80" as="geometry" />
        </mxCell>
        <mxCell id="VA1tfp3fu7CcecJ8VBgJ-47" value="기부 게시판 &lt;br&gt;조회, 작성, 수정, 삭제&lt;br&gt;댓글 조회, 작성, 삭제" style="text;html=1;strokeColor=none;fillColor=none;align=center;verticalAlign=middle;whiteSpace=wrap;rounded=0;" parent="1" vertex="1">
          <mxGeometry x="1760" y="-360" width="130" height="60" as="geometry" />
        </mxCell>
        <mxCell id="VA1tfp3fu7CcecJ8VBgJ-48" value="" style="rounded=1;whiteSpace=wrap;html=1;" parent="1" vertex="1">
          <mxGeometry x="1750" y="-190" width="150" height="80" as="geometry" />
        </mxCell>
        <mxCell id="VA1tfp3fu7CcecJ8VBgJ-49" value="내새끼 자랑 게시판&amp;nbsp;&lt;br&gt;조회, 작성, 수정, 삭제,&lt;br&gt;좋아요,&lt;br&gt;댓글 조회, 작성, 삭제" style="text;html=1;strokeColor=none;fillColor=none;align=center;verticalAlign=middle;whiteSpace=wrap;rounded=0;" parent="1" vertex="1">
          <mxGeometry x="1750" y="-180" width="150" height="60" as="geometry" />
        </mxCell>
        <mxCell id="VA1tfp3fu7CcecJ8VBgJ-50" value="" style="rounded=1;whiteSpace=wrap;html=1;" parent="1" vertex="1">
          <mxGeometry x="1750" y="-460" width="150" height="80" as="geometry" />
        </mxCell>
        <mxCell id="VA1tfp3fu7CcecJ8VBgJ-51" value="홈 화면" style="text;html=1;strokeColor=none;fillColor=none;align=center;verticalAlign=middle;whiteSpace=wrap;rounded=0;" parent="1" vertex="1">
          <mxGeometry x="1760" y="-450" width="130" height="60" as="geometry" />
        </mxCell>
        <mxCell id="VA1tfp3fu7CcecJ8VBgJ-52" value="" style="rounded=1;whiteSpace=wrap;html=1;" parent="1" vertex="1">
          <mxGeometry x="1750" y="-280" width="150" height="80" as="geometry" />
        </mxCell>
        <mxCell id="VA1tfp3fu7CcecJ8VBgJ-53" value="상품 게시판 조회,&lt;br&gt;댓글 조회, 작성, 삭제" style="text;html=1;strokeColor=none;fillColor=none;align=center;verticalAlign=middle;whiteSpace=wrap;rounded=0;" parent="1" vertex="1">
          <mxGeometry x="1765" y="-270" width="130" height="60" as="geometry" />
        </mxCell>
        <mxCell id="VA1tfp3fu7CcecJ8VBgJ-54" value="" style="rounded=1;whiteSpace=wrap;html=1;" parent="1" vertex="1">
          <mxGeometry x="1750" y="-100" width="150" height="80" as="geometry" />
        </mxCell>
        <mxCell id="VA1tfp3fu7CcecJ8VBgJ-55" value="입양공고 게시판&amp;nbsp;&lt;br&gt;조회, 작성, 수정, 삭제" style="text;html=1;strokeColor=none;fillColor=none;align=center;verticalAlign=middle;whiteSpace=wrap;rounded=0;" parent="1" vertex="1">
          <mxGeometry x="1765" y="-90" width="120" height="60" as="geometry" />
        </mxCell>
        <mxCell id="VA1tfp3fu7CcecJ8VBgJ-56" value="" style="rounded=1;whiteSpace=wrap;html=1;" parent="1" vertex="1">
          <mxGeometry x="1750" y="-10" width="150" height="80" as="geometry" />
        </mxCell>
        <mxCell id="VA1tfp3fu7CcecJ8VBgJ-57" value="기부 단건/정기 결제" style="text;html=1;strokeColor=none;fillColor=none;align=center;verticalAlign=middle;whiteSpace=wrap;rounded=0;" parent="1" vertex="1">
          <mxGeometry x="1760" width="130" height="60" as="geometry" />
        </mxCell>
        <mxCell id="VA1tfp3fu7CcecJ8VBgJ-58" value="" style="rounded=1;whiteSpace=wrap;html=1;" parent="1" vertex="1">
          <mxGeometry x="1750" y="80" width="150" height="80" as="geometry" />
        </mxCell>
        <mxCell id="VA1tfp3fu7CcecJ8VBgJ-59" value="상품 구매" style="text;html=1;strokeColor=none;fillColor=none;align=center;verticalAlign=middle;whiteSpace=wrap;rounded=0;" parent="1" vertex="1">
          <mxGeometry x="1760" y="90" width="130" height="60" as="geometry" />
        </mxCell>
        <mxCell id="VA1tfp3fu7CcecJ8VBgJ-60" value="" style="endArrow=classic;html=1;rounded=0;exitX=1;exitY=0.5;exitDx=0;exitDy=0;exitPerimeter=0;entryX=0;entryY=0.5;entryDx=0;entryDy=0;" parent="1" source="VA1tfp3fu7CcecJ8VBgJ-44" target="VA1tfp3fu7CcecJ8VBgJ-49" edge="1">
          <mxGeometry width="50" height="50" relative="1" as="geometry">
            <mxPoint x="1680" y="-150" as="sourcePoint" />
            <mxPoint x="1730" y="-200" as="targetPoint" />
            <Array as="points">
              <mxPoint x="1680" y="-100" />
              <mxPoint x="1680" y="-150" />
            </Array>
          </mxGeometry>
        </mxCell>
        <mxCell id="VA1tfp3fu7CcecJ8VBgJ-61" value="" style="endArrow=classic;html=1;rounded=0;exitX=1;exitY=0.5;exitDx=0;exitDy=0;exitPerimeter=0;entryX=0;entryY=0.5;entryDx=0;entryDy=0;" parent="1" source="VA1tfp3fu7CcecJ8VBgJ-44" target="VA1tfp3fu7CcecJ8VBgJ-52" edge="1">
          <mxGeometry width="50" height="50" relative="1" as="geometry">
            <mxPoint x="1630" y="-140" as="sourcePoint" />
            <mxPoint x="1760" y="-140" as="targetPoint" />
            <Array as="points">
              <mxPoint x="1680" y="-100" />
              <mxPoint x="1680" y="-240" />
            </Array>
          </mxGeometry>
        </mxCell>
        <mxCell id="VA1tfp3fu7CcecJ8VBgJ-62" value="" style="endArrow=classic;html=1;rounded=0;exitX=1;exitY=0.5;exitDx=0;exitDy=0;exitPerimeter=0;entryX=0;entryY=0.5;entryDx=0;entryDy=0;" parent="1" source="VA1tfp3fu7CcecJ8VBgJ-44" target="VA1tfp3fu7CcecJ8VBgJ-46" edge="1">
          <mxGeometry width="50" height="50" relative="1" as="geometry">
            <mxPoint x="1640" y="-130" as="sourcePoint" />
            <mxPoint x="1770" y="-130" as="targetPoint" />
            <Array as="points">
              <mxPoint x="1680" y="-100" />
              <mxPoint x="1680" y="-330" />
            </Array>
          </mxGeometry>
        </mxCell>
        <mxCell id="VA1tfp3fu7CcecJ8VBgJ-63" value="" style="endArrow=classic;html=1;rounded=0;exitX=1;exitY=0.5;exitDx=0;exitDy=0;exitPerimeter=0;entryX=0;entryY=0.5;entryDx=0;entryDy=0;" parent="1" source="VA1tfp3fu7CcecJ8VBgJ-44" target="VA1tfp3fu7CcecJ8VBgJ-50" edge="1">
          <mxGeometry width="50" height="50" relative="1" as="geometry">
            <mxPoint x="1650" y="-120" as="sourcePoint" />
            <mxPoint x="1780" y="-120" as="targetPoint" />
            <Array as="points">
              <mxPoint x="1680" y="-100" />
              <mxPoint x="1680" y="-420" />
            </Array>
          </mxGeometry>
        </mxCell>
        <mxCell id="VA1tfp3fu7CcecJ8VBgJ-64" value="" style="endArrow=classic;html=1;rounded=0;exitX=1;exitY=0.5;exitDx=0;exitDy=0;exitPerimeter=0;entryX=0;entryY=0.5;entryDx=0;entryDy=0;" parent="1" source="VA1tfp3fu7CcecJ8VBgJ-44" target="VA1tfp3fu7CcecJ8VBgJ-54" edge="1">
          <mxGeometry width="50" height="50" relative="1" as="geometry">
            <mxPoint x="1660" y="-110" as="sourcePoint" />
            <mxPoint x="1790" y="-110" as="targetPoint" />
            <Array as="points">
              <mxPoint x="1680" y="-100" />
              <mxPoint x="1680" y="-60" />
            </Array>
          </mxGeometry>
        </mxCell>
        <mxCell id="VA1tfp3fu7CcecJ8VBgJ-65" value="" style="endArrow=classic;html=1;rounded=0;exitX=1;exitY=0.5;exitDx=0;exitDy=0;exitPerimeter=0;entryX=0;entryY=0.5;entryDx=0;entryDy=0;" parent="1" source="VA1tfp3fu7CcecJ8VBgJ-44" target="VA1tfp3fu7CcecJ8VBgJ-56" edge="1">
          <mxGeometry width="50" height="50" relative="1" as="geometry">
            <mxPoint x="1670" y="-100" as="sourcePoint" />
            <mxPoint x="1800" y="-100" as="targetPoint" />
            <Array as="points">
              <mxPoint x="1680" y="-100" />
              <mxPoint x="1680" y="30" />
            </Array>
          </mxGeometry>
        </mxCell>
        <mxCell id="VA1tfp3fu7CcecJ8VBgJ-66" value="" style="endArrow=classic;html=1;rounded=0;exitX=1;exitY=0.5;exitDx=0;exitDy=0;exitPerimeter=0;entryX=0;entryY=0.5;entryDx=0;entryDy=0;" parent="1" source="VA1tfp3fu7CcecJ8VBgJ-44" target="VA1tfp3fu7CcecJ8VBgJ-58" edge="1">
          <mxGeometry width="50" height="50" relative="1" as="geometry">
            <mxPoint x="1680" y="-90" as="sourcePoint" />
            <mxPoint x="1810" y="-90" as="targetPoint" />
            <Array as="points">
              <mxPoint x="1680" y="-100" />
              <mxPoint x="1680" y="120" />
            </Array>
          </mxGeometry>
        </mxCell>
        <mxCell id="VA1tfp3fu7CcecJ8VBgJ-67" value="" style="rounded=1;whiteSpace=wrap;html=1;" parent="1" vertex="1">
          <mxGeometry x="1750" y="170" width="150" height="80" as="geometry" />
        </mxCell>
        <mxCell id="VA1tfp3fu7CcecJ8VBgJ-68" value="1:1문의게시판&lt;br&gt;조회, 작성, 수정, 삭제&lt;br&gt;댓글 조회, 작성, 삭제" style="text;html=1;strokeColor=none;fillColor=none;align=center;verticalAlign=middle;whiteSpace=wrap;rounded=0;" parent="1" vertex="1">
          <mxGeometry x="1760" y="180" width="130" height="60" as="geometry" />
        </mxCell>
        <mxCell id="VA1tfp3fu7CcecJ8VBgJ-69" value="" style="endArrow=classic;html=1;rounded=0;exitX=1;exitY=0.5;exitDx=0;exitDy=0;exitPerimeter=0;entryX=0;entryY=0.5;entryDx=0;entryDy=0;" parent="1" source="VA1tfp3fu7CcecJ8VBgJ-44" target="VA1tfp3fu7CcecJ8VBgJ-67" edge="1">
          <mxGeometry width="50" height="50" relative="1" as="geometry">
            <mxPoint x="1680" y="-50" as="sourcePoint" />
            <mxPoint x="1730" y="-100" as="targetPoint" />
            <Array as="points">
              <mxPoint x="1680" y="-100" />
              <mxPoint x="1680" y="210" />
            </Array>
          </mxGeometry>
        </mxCell>
        <mxCell id="VA1tfp3fu7CcecJ8VBgJ-70" value="" style="verticalLabelPosition=bottom;verticalAlign=top;html=1;shape=mxgraph.basic.smiley" parent="1" vertex="1">
          <mxGeometry x="2020" y="-120" width="80" height="80" as="geometry" />
        </mxCell>
        <mxCell id="VA1tfp3fu7CcecJ8VBgJ-71" value="관리자" style="text;html=1;strokeColor=none;fillColor=none;align=center;verticalAlign=middle;whiteSpace=wrap;rounded=0;fontSize=17;fontStyle=1" parent="1" vertex="1">
          <mxGeometry x="2030" y="-40" width="60" height="30" as="geometry" />
        </mxCell>
        <mxCell id="VA1tfp3fu7CcecJ8VBgJ-72" value="" style="rounded=1;whiteSpace=wrap;html=1;" parent="1" vertex="1">
          <mxGeometry x="2230" y="-350" width="150" height="80" as="geometry" />
        </mxCell>
        <mxCell id="VA1tfp3fu7CcecJ8VBgJ-73" value="기부 게시판 &lt;br&gt;조회, 작성, 수정, 삭제&lt;br&gt;댓글 조회, 작성, 삭제" style="text;html=1;strokeColor=none;fillColor=none;align=center;verticalAlign=middle;whiteSpace=wrap;rounded=0;" parent="1" vertex="1">
          <mxGeometry x="2240" y="-340" width="130" height="60" as="geometry" />
        </mxCell>
        <mxCell id="VA1tfp3fu7CcecJ8VBgJ-74" value="" style="rounded=1;whiteSpace=wrap;html=1;" parent="1" vertex="1">
          <mxGeometry x="2230" y="-170" width="150" height="80" as="geometry" />
        </mxCell>
        <mxCell id="VA1tfp3fu7CcecJ8VBgJ-75" value="내새끼 자랑 게시판&amp;nbsp;&lt;br&gt;조회, 작성, 수정, 삭제,&lt;br&gt;좋아요,&lt;br&gt;댓글 조회, 작성, 삭제" style="text;html=1;strokeColor=none;fillColor=none;align=center;verticalAlign=middle;whiteSpace=wrap;rounded=0;" parent="1" vertex="1">
          <mxGeometry x="2230" y="-160" width="150" height="60" as="geometry" />
        </mxCell>
        <mxCell id="VA1tfp3fu7CcecJ8VBgJ-76" value="" style="rounded=1;whiteSpace=wrap;html=1;" parent="1" vertex="1">
          <mxGeometry x="2230" y="-440" width="150" height="80" as="geometry" />
        </mxCell>
        <mxCell id="VA1tfp3fu7CcecJ8VBgJ-77" value="홈 화면" style="text;html=1;strokeColor=none;fillColor=none;align=center;verticalAlign=middle;whiteSpace=wrap;rounded=0;" parent="1" vertex="1">
          <mxGeometry x="2240" y="-430" width="130" height="60" as="geometry" />
        </mxCell>
        <mxCell id="VA1tfp3fu7CcecJ8VBgJ-78" value="" style="rounded=1;whiteSpace=wrap;html=1;" parent="1" vertex="1">
          <mxGeometry x="2230" y="-260" width="150" height="80" as="geometry" />
        </mxCell>
        <mxCell id="VA1tfp3fu7CcecJ8VBgJ-79" value="상품 게시판 &lt;br&gt;조회, 작성, 수정, 삭제&lt;br&gt;댓글 조회, 작성, 삭제" style="text;html=1;strokeColor=none;fillColor=none;align=center;verticalAlign=middle;whiteSpace=wrap;rounded=0;" parent="1" vertex="1">
          <mxGeometry x="2245" y="-250" width="130" height="60" as="geometry" />
        </mxCell>
        <mxCell id="VA1tfp3fu7CcecJ8VBgJ-80" value="" style="rounded=1;whiteSpace=wrap;html=1;" parent="1" vertex="1">
          <mxGeometry x="2230" y="-80" width="150" height="80" as="geometry" />
        </mxCell>
        <mxCell id="VA1tfp3fu7CcecJ8VBgJ-81" value="입양공고 게시판&amp;nbsp;&lt;br&gt;조회, 작성, 수정, 삭제" style="text;html=1;strokeColor=none;fillColor=none;align=center;verticalAlign=middle;whiteSpace=wrap;rounded=0;" parent="1" vertex="1">
          <mxGeometry x="2245" y="-70" width="120" height="60" as="geometry" />
        </mxCell>
        <mxCell id="VA1tfp3fu7CcecJ8VBgJ-82" value="" style="rounded=1;whiteSpace=wrap;html=1;" parent="1" vertex="1">
          <mxGeometry x="2230" y="10" width="150" height="80" as="geometry" />
        </mxCell>
        <mxCell id="VA1tfp3fu7CcecJ8VBgJ-83" value="기부 단건/정기 결제" style="text;html=1;strokeColor=none;fillColor=none;align=center;verticalAlign=middle;whiteSpace=wrap;rounded=0;" parent="1" vertex="1">
          <mxGeometry x="2240" y="20" width="130" height="60" as="geometry" />
        </mxCell>
        <mxCell id="VA1tfp3fu7CcecJ8VBgJ-84" value="" style="rounded=1;whiteSpace=wrap;html=1;" parent="1" vertex="1">
          <mxGeometry x="2230" y="100" width="150" height="80" as="geometry" />
        </mxCell>
        <mxCell id="VA1tfp3fu7CcecJ8VBgJ-85" value="상품 구매" style="text;html=1;strokeColor=none;fillColor=none;align=center;verticalAlign=middle;whiteSpace=wrap;rounded=0;" parent="1" vertex="1">
          <mxGeometry x="2240" y="110" width="130" height="60" as="geometry" />
        </mxCell>
        <mxCell id="VA1tfp3fu7CcecJ8VBgJ-86" value="" style="endArrow=classic;html=1;rounded=0;exitX=1;exitY=0.5;exitDx=0;exitDy=0;exitPerimeter=0;entryX=0;entryY=0.5;entryDx=0;entryDy=0;" parent="1" source="VA1tfp3fu7CcecJ8VBgJ-70" target="VA1tfp3fu7CcecJ8VBgJ-75" edge="1">
          <mxGeometry width="50" height="50" relative="1" as="geometry">
            <mxPoint x="2160" y="-130" as="sourcePoint" />
            <mxPoint x="2210" y="-180" as="targetPoint" />
            <Array as="points">
              <mxPoint x="2160" y="-80" />
              <mxPoint x="2160" y="-130" />
            </Array>
          </mxGeometry>
        </mxCell>
        <mxCell id="VA1tfp3fu7CcecJ8VBgJ-87" value="" style="endArrow=classic;html=1;rounded=0;exitX=1;exitY=0.5;exitDx=0;exitDy=0;exitPerimeter=0;entryX=0;entryY=0.5;entryDx=0;entryDy=0;" parent="1" source="VA1tfp3fu7CcecJ8VBgJ-70" target="VA1tfp3fu7CcecJ8VBgJ-78" edge="1">
          <mxGeometry width="50" height="50" relative="1" as="geometry">
            <mxPoint x="2110" y="-120" as="sourcePoint" />
            <mxPoint x="2240" y="-120" as="targetPoint" />
            <Array as="points">
              <mxPoint x="2160" y="-80" />
              <mxPoint x="2160" y="-220" />
            </Array>
          </mxGeometry>
        </mxCell>
        <mxCell id="VA1tfp3fu7CcecJ8VBgJ-88" value="" style="endArrow=classic;html=1;rounded=0;exitX=1;exitY=0.5;exitDx=0;exitDy=0;exitPerimeter=0;entryX=0;entryY=0.5;entryDx=0;entryDy=0;" parent="1" source="VA1tfp3fu7CcecJ8VBgJ-70" target="VA1tfp3fu7CcecJ8VBgJ-72" edge="1">
          <mxGeometry width="50" height="50" relative="1" as="geometry">
            <mxPoint x="2120" y="-110" as="sourcePoint" />
            <mxPoint x="2250" y="-110" as="targetPoint" />
            <Array as="points">
              <mxPoint x="2160" y="-80" />
              <mxPoint x="2160" y="-310" />
            </Array>
          </mxGeometry>
        </mxCell>
        <mxCell id="VA1tfp3fu7CcecJ8VBgJ-89" value="" style="endArrow=classic;html=1;rounded=0;exitX=1;exitY=0.5;exitDx=0;exitDy=0;exitPerimeter=0;entryX=0;entryY=0.5;entryDx=0;entryDy=0;" parent="1" source="VA1tfp3fu7CcecJ8VBgJ-70" target="VA1tfp3fu7CcecJ8VBgJ-76" edge="1">
          <mxGeometry width="50" height="50" relative="1" as="geometry">
            <mxPoint x="2130" y="-100" as="sourcePoint" />
            <mxPoint x="2260" y="-100" as="targetPoint" />
            <Array as="points">
              <mxPoint x="2160" y="-80" />
              <mxPoint x="2160" y="-400" />
            </Array>
          </mxGeometry>
        </mxCell>
        <mxCell id="VA1tfp3fu7CcecJ8VBgJ-90" value="" style="endArrow=classic;html=1;rounded=0;exitX=1;exitY=0.5;exitDx=0;exitDy=0;exitPerimeter=0;entryX=0;entryY=0.5;entryDx=0;entryDy=0;" parent="1" source="VA1tfp3fu7CcecJ8VBgJ-70" target="VA1tfp3fu7CcecJ8VBgJ-80" edge="1">
          <mxGeometry width="50" height="50" relative="1" as="geometry">
            <mxPoint x="2140" y="-90" as="sourcePoint" />
            <mxPoint x="2270" y="-90" as="targetPoint" />
            <Array as="points">
              <mxPoint x="2160" y="-80" />
              <mxPoint x="2160" y="-40" />
            </Array>
          </mxGeometry>
        </mxCell>
        <mxCell id="VA1tfp3fu7CcecJ8VBgJ-91" value="" style="endArrow=classic;html=1;rounded=0;exitX=1;exitY=0.5;exitDx=0;exitDy=0;exitPerimeter=0;entryX=0;entryY=0.5;entryDx=0;entryDy=0;" parent="1" source="VA1tfp3fu7CcecJ8VBgJ-70" target="VA1tfp3fu7CcecJ8VBgJ-82" edge="1">
          <mxGeometry width="50" height="50" relative="1" as="geometry">
            <mxPoint x="2150" y="-80" as="sourcePoint" />
            <mxPoint x="2280" y="-80" as="targetPoint" />
            <Array as="points">
              <mxPoint x="2160" y="-80" />
              <mxPoint x="2160" y="50" />
            </Array>
          </mxGeometry>
        </mxCell>
        <mxCell id="VA1tfp3fu7CcecJ8VBgJ-92" value="" style="endArrow=classic;html=1;rounded=0;exitX=1;exitY=0.5;exitDx=0;exitDy=0;exitPerimeter=0;entryX=0;entryY=0.5;entryDx=0;entryDy=0;" parent="1" source="VA1tfp3fu7CcecJ8VBgJ-70" target="VA1tfp3fu7CcecJ8VBgJ-84" edge="1">
          <mxGeometry width="50" height="50" relative="1" as="geometry">
            <mxPoint x="2160" y="-70" as="sourcePoint" />
            <mxPoint x="2290" y="-70" as="targetPoint" />
            <Array as="points">
              <mxPoint x="2160" y="-80" />
              <mxPoint x="2160" y="140" />
            </Array>
          </mxGeometry>
        </mxCell>
        <mxCell id="VA1tfp3fu7CcecJ8VBgJ-93" value="" style="rounded=1;whiteSpace=wrap;html=1;" parent="1" vertex="1">
          <mxGeometry x="2230" y="190" width="150" height="80" as="geometry" />
        </mxCell>
        <mxCell id="VA1tfp3fu7CcecJ8VBgJ-94" value="1:1문의게시판&lt;br&gt;조회, 작성, 수정, 삭제&lt;br&gt;댓글 조회, 작성, 삭제" style="text;html=1;strokeColor=none;fillColor=none;align=center;verticalAlign=middle;whiteSpace=wrap;rounded=0;" parent="1" vertex="1">
          <mxGeometry x="2240" y="200" width="130" height="60" as="geometry" />
        </mxCell>
        <mxCell id="VA1tfp3fu7CcecJ8VBgJ-95" value="" style="endArrow=classic;html=1;rounded=0;exitX=1;exitY=0.5;exitDx=0;exitDy=0;exitPerimeter=0;entryX=0;entryY=0.5;entryDx=0;entryDy=0;" parent="1" source="VA1tfp3fu7CcecJ8VBgJ-70" target="VA1tfp3fu7CcecJ8VBgJ-93" edge="1">
          <mxGeometry width="50" height="50" relative="1" as="geometry">
            <mxPoint x="2160" y="-30" as="sourcePoint" />
            <mxPoint x="2210" y="-80" as="targetPoint" />
            <Array as="points">
              <mxPoint x="2160" y="-80" />
              <mxPoint x="2160" y="230" />
            </Array>
          </mxGeometry>
        </mxCell>
        <mxCell id="VA1tfp3fu7CcecJ8VBgJ-96" value="" style="rounded=1;whiteSpace=wrap;html=1;" parent="1" vertex="1">
          <mxGeometry x="1310" y="-550" width="150" height="80" as="geometry" />
        </mxCell>
        <mxCell id="VA1tfp3fu7CcecJ8VBgJ-97" value="마이페이지" style="text;html=1;strokeColor=none;fillColor=none;align=center;verticalAlign=middle;whiteSpace=wrap;rounded=0;" parent="1" vertex="1">
          <mxGeometry x="1320" y="-540" width="130" height="60" as="geometry" />
        </mxCell>
        <mxCell id="VA1tfp3fu7CcecJ8VBgJ-98" value="" style="rounded=1;whiteSpace=wrap;html=1;" parent="1" vertex="1">
          <mxGeometry x="1750" y="-550" width="150" height="80" as="geometry" />
        </mxCell>
        <mxCell id="VA1tfp3fu7CcecJ8VBgJ-99" value="마이페이지" style="text;html=1;strokeColor=none;fillColor=none;align=center;verticalAlign=middle;whiteSpace=wrap;rounded=0;" parent="1" vertex="1">
          <mxGeometry x="1760" y="-540" width="130" height="60" as="geometry" />
        </mxCell>
        <mxCell id="VA1tfp3fu7CcecJ8VBgJ-100" value="" style="rounded=1;whiteSpace=wrap;html=1;" parent="1" vertex="1">
          <mxGeometry x="2230" y="-530" width="150" height="80" as="geometry" />
        </mxCell>
        <mxCell id="VA1tfp3fu7CcecJ8VBgJ-101" value="마이페이지" style="text;html=1;strokeColor=none;fillColor=none;align=center;verticalAlign=middle;whiteSpace=wrap;rounded=0;" parent="1" vertex="1">
          <mxGeometry x="2240" y="-520" width="130" height="60" as="geometry" />
        </mxCell>
        <mxCell id="VA1tfp3fu7CcecJ8VBgJ-102" value="" style="rounded=1;whiteSpace=wrap;html=1;" parent="1" vertex="1">
          <mxGeometry x="2230" y="-620" width="150" height="80" as="geometry" />
        </mxCell>
        <mxCell id="VA1tfp3fu7CcecJ8VBgJ-103" value="관리자 페이지" style="text;html=1;strokeColor=none;fillColor=none;align=center;verticalAlign=middle;whiteSpace=wrap;rounded=0;" parent="1" vertex="1">
          <mxGeometry x="2240" y="-610" width="130" height="60" as="geometry" />
        </mxCell>
        <mxCell id="VA1tfp3fu7CcecJ8VBgJ-104" value="" style="endArrow=classic;html=1;rounded=0;exitX=1;exitY=0.5;exitDx=0;exitDy=0;exitPerimeter=0;entryX=0;entryY=0.5;entryDx=0;entryDy=0;" parent="1" source="VA1tfp3fu7CcecJ8VBgJ-9" target="VA1tfp3fu7CcecJ8VBgJ-96" edge="1">
          <mxGeometry width="50" height="50" relative="1" as="geometry">
            <mxPoint x="1450" y="-290" as="sourcePoint" />
            <mxPoint x="1500" y="-340" as="targetPoint" />
            <Array as="points">
              <mxPoint x="1240" y="-100" />
              <mxPoint x="1240" y="-510" />
            </Array>
          </mxGeometry>
        </mxCell>
        <mxCell id="VA1tfp3fu7CcecJ8VBgJ-105" value="" style="endArrow=classic;html=1;rounded=0;exitX=1;exitY=0.5;exitDx=0;exitDy=0;exitPerimeter=0;entryX=0;entryY=0.5;entryDx=0;entryDy=0;" parent="1" source="VA1tfp3fu7CcecJ8VBgJ-44" target="VA1tfp3fu7CcecJ8VBgJ-98" edge="1">
          <mxGeometry width="50" height="50" relative="1" as="geometry">
            <mxPoint x="1850" y="-290" as="sourcePoint" />
            <mxPoint x="1900" y="-340" as="targetPoint" />
            <Array as="points">
              <mxPoint x="1680" y="-100" />
              <mxPoint x="1680" y="-510" />
            </Array>
          </mxGeometry>
        </mxCell>
        <mxCell id="VA1tfp3fu7CcecJ8VBgJ-106" value="" style="endArrow=classic;html=1;rounded=0;exitX=1;exitY=0.5;exitDx=0;exitDy=0;exitPerimeter=0;entryX=0;entryY=0.5;entryDx=0;entryDy=0;" parent="1" source="VA1tfp3fu7CcecJ8VBgJ-70" target="VA1tfp3fu7CcecJ8VBgJ-102" edge="1">
          <mxGeometry width="50" height="50" relative="1" as="geometry">
            <mxPoint x="1850" y="-290" as="sourcePoint" />
            <mxPoint x="1900" y="-340" as="targetPoint" />
            <Array as="points">
              <mxPoint x="2160" y="-80" />
              <mxPoint x="2160" y="-580" />
            </Array>
          </mxGeometry>
        </mxCell>
        <mxCell id="VA1tfp3fu7CcecJ8VBgJ-107" value="" style="endArrow=classic;html=1;rounded=0;exitX=1;exitY=0.5;exitDx=0;exitDy=0;exitPerimeter=0;entryX=0;entryY=0.5;entryDx=0;entryDy=0;" parent="1" source="VA1tfp3fu7CcecJ8VBgJ-70" target="VA1tfp3fu7CcecJ8VBgJ-100" edge="1">
          <mxGeometry width="50" height="50" relative="1" as="geometry">
            <mxPoint x="1850" y="-290" as="sourcePoint" />
            <mxPoint x="1900" y="-340" as="targetPoint" />
            <Array as="points">
              <mxPoint x="2160" y="-80" />
              <mxPoint x="2160" y="-490" />
            </Array>
          </mxGeometry>
        </mxCell>
        <mxCell id="PLGMIADpz1poZpOOaNOE-1" value="" style="rounded=1;whiteSpace=wrap;html=1;" vertex="1" parent="1">
          <mxGeometry x="1310" y="260" width="150" height="80" as="geometry" />
        </mxCell>
        <mxCell id="PLGMIADpz1poZpOOaNOE-2" value="" style="rounded=1;whiteSpace=wrap;html=1;fontStyle=1" vertex="1" parent="1">
          <mxGeometry x="1750" y="260" width="150" height="80" as="geometry" />
        </mxCell>
        <mxCell id="PLGMIADpz1poZpOOaNOE-3" value="" style="rounded=1;whiteSpace=wrap;html=1;" vertex="1" parent="1">
          <mxGeometry x="2230" y="280" width="150" height="80" as="geometry" />
        </mxCell>
        <mxCell id="PLGMIADpz1poZpOOaNOE-4" value="" style="rounded=1;whiteSpace=wrap;html=1;" vertex="1" parent="1">
          <mxGeometry x="860" y="85" width="150" height="80" as="geometry" />
        </mxCell>
        <mxCell id="PLGMIADpz1poZpOOaNOE-5" value="입양전 필독 게시판 조회" style="text;html=1;strokeColor=none;fillColor=none;align=center;verticalAlign=middle;whiteSpace=wrap;rounded=0;" vertex="1" parent="1">
          <mxGeometry x="875" y="95" width="115" height="60" as="geometry" />
        </mxCell>
        <mxCell id="PLGMIADpz1poZpOOaNOE-6" value="입양전 필독 게시판 조회" style="text;html=1;strokeColor=none;fillColor=none;align=center;verticalAlign=middle;whiteSpace=wrap;rounded=0;" vertex="1" parent="1">
          <mxGeometry x="1325" y="270" width="115" height="60" as="geometry" />
        </mxCell>
        <mxCell id="PLGMIADpz1poZpOOaNOE-7" value="입양전 필독 게시판 조회" style="text;html=1;strokeColor=none;fillColor=none;align=center;verticalAlign=middle;whiteSpace=wrap;rounded=0;" vertex="1" parent="1">
          <mxGeometry x="1765" y="270" width="115" height="60" as="geometry" />
        </mxCell>
        <mxCell id="PLGMIADpz1poZpOOaNOE-8" value="입양전 필독 게시판 &lt;br&gt;조회, 작성, 수정, 삭제" style="text;html=1;strokeColor=none;fillColor=none;align=center;verticalAlign=middle;whiteSpace=wrap;rounded=0;" vertex="1" parent="1">
          <mxGeometry x="2247.5" y="290" width="122.5" height="60" as="geometry" />
        </mxCell>
        <mxCell id="PLGMIADpz1poZpOOaNOE-9" value="" style="endArrow=classic;html=1;rounded=0;exitX=1;exitY=0.5;exitDx=0;exitDy=0;exitPerimeter=0;entryX=0;entryY=0.5;entryDx=0;entryDy=0;" edge="1" parent="1" source="VA1tfp3fu7CcecJ8VBgJ-1" target="PLGMIADpz1poZpOOaNOE-4">
          <mxGeometry width="50" height="50" relative="1" as="geometry">
            <mxPoint x="1130" y="-125" as="sourcePoint" />
            <mxPoint x="1180" y="-175" as="targetPoint" />
            <Array as="points">
              <mxPoint x="800" y="-105" />
              <mxPoint x="800" y="125" />
            </Array>
          </mxGeometry>
        </mxCell>
        <mxCell id="PLGMIADpz1poZpOOaNOE-10" value="" style="endArrow=classic;html=1;rounded=0;exitX=1;exitY=0.5;exitDx=0;exitDy=0;exitPerimeter=0;entryX=0;entryY=0.5;entryDx=0;entryDy=0;" edge="1" parent="1" source="VA1tfp3fu7CcecJ8VBgJ-1" target="VA1tfp3fu7CcecJ8VBgJ-13">
          <mxGeometry width="50" height="50" relative="1" as="geometry">
            <mxPoint x="1130" y="-125" as="sourcePoint" />
            <mxPoint x="1180" y="-175" as="targetPoint" />
            <Array as="points">
              <mxPoint x="800" y="-105" />
              <mxPoint x="800" y="-145" />
            </Array>
          </mxGeometry>
        </mxCell>
        <mxCell id="PLGMIADpz1poZpOOaNOE-11" value="" style="endArrow=classic;html=1;rounded=0;exitX=1;exitY=0.5;exitDx=0;exitDy=0;exitPerimeter=0;entryX=0;entryY=0.5;entryDx=0;entryDy=0;" edge="1" parent="1" source="VA1tfp3fu7CcecJ8VBgJ-9" target="PLGMIADpz1poZpOOaNOE-1">
          <mxGeometry width="50" height="50" relative="1" as="geometry">
            <mxPoint x="1130" y="90" as="sourcePoint" />
            <mxPoint x="1180" y="40" as="targetPoint" />
            <Array as="points">
              <mxPoint x="1240" y="-100" />
              <mxPoint x="1240" y="300" />
            </Array>
          </mxGeometry>
        </mxCell>
        <mxCell id="PLGMIADpz1poZpOOaNOE-12" value="" style="endArrow=classic;html=1;rounded=0;exitX=1;exitY=0.5;exitDx=0;exitDy=0;exitPerimeter=0;entryX=0;entryY=0.5;entryDx=0;entryDy=0;" edge="1" parent="1" source="VA1tfp3fu7CcecJ8VBgJ-44" target="PLGMIADpz1poZpOOaNOE-2">
          <mxGeometry width="50" height="50" relative="1" as="geometry">
            <mxPoint x="1630" y="90" as="sourcePoint" />
            <mxPoint x="1680" y="40" as="targetPoint" />
            <Array as="points">
              <mxPoint x="1680" y="-100" />
              <mxPoint x="1680" y="300" />
            </Array>
          </mxGeometry>
        </mxCell>
        <mxCell id="PLGMIADpz1poZpOOaNOE-13" value="" style="endArrow=classic;html=1;rounded=0;exitX=1;exitY=0.5;exitDx=0;exitDy=0;exitPerimeter=0;entryX=0;entryY=0.5;entryDx=0;entryDy=0;" edge="1" parent="1" source="VA1tfp3fu7CcecJ8VBgJ-70" target="PLGMIADpz1poZpOOaNOE-3">
          <mxGeometry width="50" height="50" relative="1" as="geometry">
            <mxPoint x="2000" y="90" as="sourcePoint" />
            <mxPoint x="2050" y="40" as="targetPoint" />
            <Array as="points">
              <mxPoint x="2160" y="-80" />
              <mxPoint x="2160" y="320" />
            </Array>
          </mxGeometry>
        </mxCell>
      </root>
    </mxGraphModel>
  </diagram>
</mxfile>
